<mxfile host="65bd71144e">
    <diagram id="P79Qrzski3GkdZlrHSiV" name="Page-1">
        <mxGraphModel dx="501" dy="1370" grid="0" gridSize="10" guides="1" tooltips="1" connect="1" arrows="1" fold="1" page="1" pageScale="1" pageWidth="850" pageHeight="1100" background="#ffffff" math="0" shadow="0">
            <root>
                <mxCell id="0"/>
                <mxCell id="1" parent="0"/>
                <mxCell id="aWmyKmu1LwSrwHYh7kKq-4" value="" style="shape=image;html=1;verticalAlign=top;verticalLabelPosition=bottom;labelBackgroundColor=#ffffff;imageAspect=0;aspect=fixed;image=https://cdn4.iconfinder.com/data/icons/socialcones/508/Github-128.png" parent="1" vertex="1">
                    <mxGeometry x="10" y="273" width="128" height="128" as="geometry"/>
                </mxCell>
                <mxCell id="aWmyKmu1LwSrwHYh7kKq-7" style="edgeStyle=orthogonalEdgeStyle;rounded=0;orthogonalLoop=1;jettySize=auto;html=1;" parent="1" source="aWmyKmu1LwSrwHYh7kKq-6" target="aWmyKmu1LwSrwHYh7kKq-4" edge="1">
                    <mxGeometry relative="1" as="geometry"/>
                </mxCell>
                <mxCell id="aWmyKmu1LwSrwHYh7kKq-10" style="edgeStyle=orthogonalEdgeStyle;rounded=0;orthogonalLoop=1;jettySize=auto;html=1;exitX=0;exitY=0.25;exitDx=0;exitDy=0;" parent="1" source="aWmyKmu1LwSrwHYh7kKq-6" target="aWmyKmu1LwSrwHYh7kKq-8" edge="1">
                    <mxGeometry relative="1" as="geometry"/>
                </mxCell>
                <mxCell id="aWmyKmu1LwSrwHYh7kKq-13" style="edgeStyle=orthogonalEdgeStyle;rounded=0;orthogonalLoop=1;jettySize=auto;html=1;entryX=0;entryY=0.5;entryDx=0;entryDy=0;exitX=0.5;exitY=0;exitDx=0;exitDy=0;" parent="1" source="aWmyKmu1LwSrwHYh7kKq-6" target="aWmyKmu1LwSrwHYh7kKq-12" edge="1">
                    <mxGeometry relative="1" as="geometry"/>
                </mxCell>
                <mxCell id="aWmyKmu1LwSrwHYh7kKq-17" style="edgeStyle=orthogonalEdgeStyle;rounded=0;orthogonalLoop=1;jettySize=auto;html=1;entryX=0;entryY=0.5;entryDx=0;entryDy=0;exitX=1;exitY=0.25;exitDx=0;exitDy=0;" parent="1" source="aWmyKmu1LwSrwHYh7kKq-6" target="aWmyKmu1LwSrwHYh7kKq-15" edge="1">
                    <mxGeometry relative="1" as="geometry">
                        <Array as="points">
                            <mxPoint x="560" y="289"/>
                            <mxPoint x="560" y="250"/>
                        </Array>
                    </mxGeometry>
                </mxCell>
                <mxCell id="aWmyKmu1LwSrwHYh7kKq-22" style="edgeStyle=orthogonalEdgeStyle;rounded=0;orthogonalLoop=1;jettySize=auto;html=1;exitX=1;exitY=0.75;exitDx=0;exitDy=0;entryX=0;entryY=0.5;entryDx=0;entryDy=0;" parent="1" source="aWmyKmu1LwSrwHYh7kKq-6" target="aWmyKmu1LwSrwHYh7kKq-21" edge="1">
                    <mxGeometry relative="1" as="geometry">
                        <Array as="points">
                            <mxPoint x="580" y="386"/>
                            <mxPoint x="580" y="486"/>
                        </Array>
                    </mxGeometry>
                </mxCell>
                <mxCell id="aWmyKmu1LwSrwHYh7kKq-23" style="edgeStyle=orthogonalEdgeStyle;rounded=0;orthogonalLoop=1;jettySize=auto;html=1;exitX=0.75;exitY=1;exitDx=0;exitDy=0;entryX=0;entryY=0.563;entryDx=0;entryDy=0;entryPerimeter=0;" parent="1" source="aWmyKmu1LwSrwHYh7kKq-6" target="aWmyKmu1LwSrwHYh7kKq-16" edge="1">
                    <mxGeometry relative="1" as="geometry"/>
                </mxCell>
                <mxCell id="aWmyKmu1LwSrwHYh7kKq-25" style="edgeStyle=orthogonalEdgeStyle;rounded=0;orthogonalLoop=1;jettySize=auto;html=1;exitX=0.25;exitY=1;exitDx=0;exitDy=0;" parent="1" source="aWmyKmu1LwSrwHYh7kKq-6" target="aWmyKmu1LwSrwHYh7kKq-24" edge="1">
                    <mxGeometry relative="1" as="geometry"/>
                </mxCell>
                <mxCell id="aWmyKmu1LwSrwHYh7kKq-6" value="" style="shape=image;verticalLabelPosition=bottom;labelBackgroundColor=default;verticalAlign=top;aspect=fixed;imageAspect=0;image=data:image/jpeg,/9j/4AAQSkZJRgABAQAAAQABAAD/2wCEAAoHCBISEhISFRIYGRgYGhwZHRgaHBIaGBoaGBkaGRgYHBgcITAlHB8rJBgZJjomLC8xNTU2GiQ7QDszPzA0NTEBDAwMEA8QHxISHzErJCwxNzQ2NTQ0PzY0MT80PTY/NDQ6NDQ0NDQ0NjE2ND00NDQ0NDQ0NDQxNDQ2NDU0ND00NP/AABEIAMIBAwMBIgACEQEDEQH/xAAcAAEAAQUBAQAAAAAAAAAAAAAABwEDBAUGAgj/xABDEAACAgECAwUEBgcFCAMAAAABAgADEQQSBSExBhNBUWEHInGBFDJCkaGxI1JicoKSwRUzorLCNFNjg9HS4fAWJHP/xAAaAQEAAgMBAAAAAAAAAAAAAAAAAQIDBAUG/8QAJxEBAQACAQMDAwUBAAAAAAAAAAECEQMEEjEhQWEFIlETUnGhsUL/2gAMAwEAAhEDEQA/AJmiIgIiICIiAiIgIiICIiAiJQmAicTxz2i6Wl2p06Pq7h9ikFkBH6zgH/CGx44nEU9s+OcScppFVFzzNaptQHH1rbMjPPPLBPgITpNsSKl7KcasAazjLq3kjXkfepQfhKWcH7R6f3qeIrcB9lyu4+mLUI/xCV7sfyntqV4kVaH2kavS2CniejZM8u8RWHz2kkOB4lW+Rkl6HWV31rbU6ujDKspyCP8A3wllWVERAREQEREBERAREQEREBERAREQEREBERAREQEREBERAwOLcSq0tNmoubalYyT+AAHiSSAB4kiRlxDXX8ST6Rq7H0+ib+70tZIt1C+BsYfZPl058vBmxu2vHruLaj+ztJWGrps3vYxwjtXlSWPQVAk+ZYgEeGdZ2h0pNVtlvErrrlRtorVK6FwCdvhlevNQIS6PgPCrNYpVVGl0AOBXT7r6gqfe3WD3tmRgt1bn4c52umprpRaqq1RF5BVACj4AfnLXDbVbTafYgRTUhCDkFUopCgeAAml7R9pG07ppdNT3+qddwr+xWn67nPIemR6kcs6+WVyumaSSbdEXJ8Z5mj7PXcSYuNbXSvIFGqPj4qy7j6cxN5MdmqvFnWaWu6tq7a1dG6qwyD6+h9eonApbd2d1Sspd9Be3NDkmtvHH7YAyD9tQQeYBEiCcT2l7O8U1gu/+7XsYnbp9uECq2UBfBJfkDnHXoQJfjy1fKmeO4k7TahLUSxGDI4DKw5hlYZBB8sGX5HHsh4hYKtToLgyvpnBCt1VLMnb6gMrHPTDjHLEkebLAREQEREBERAREQEREBERAREQEREBERAREQERECk1naDiC6bS6i4sF2VsQSQPe2nYBnxJwAPEmZes1SU1vbYwVEBZmPQKBkmQR2n49ZxWx7nLV6WrPdp4k4xuI8XOf4QcDxJi2Sbq/Hx5Z3UeuzZ7rh6IvI3O7ufErWRWifu5V2x5meOKqWqdF+s+EHxdgg/zTx2b4bxLVaesabTrsTeO8sbarEuWKrkgnBYjIBHqDylH1FlVvd6mvu7KLKrHXqpRLEdmUjII2jPIn88TtGkx0VCtEQdEUKPgoAH5TD0XCkqu1OoGS97KWY4yFRFRUH7I2k/P0mfE09tjS1rLu7qstKlgiM5C82IRSxAHieUuI4YBgcggEEdCDzBE0PHe1R0VgrbR32VsobvK1DrkkgqQSACMDqfGYvYPUXPVaGqeuhXxpxYNtgrOTsI8VXkAfLlk4k9v27R3eunSrqENj1hhvRVZl55CuWCH57G+6eNfqRTVZcQStal2x12qMsR5nAJx6Tne1Nz6O+jiKqWrA7nUKASe7ZtyWAeasT/PjxJmRxziOvwn0HTVaiq1Ml2dcDd5qWXKFSDkHz6cspj4LVdHivjtbqfd1OjYHHRmrsVlfPj7px8J30gjj9Wt4eOEhbR9IpS/aUyQFUoRWc/XAU7enMffJT7F9qK+JacWqAti4WyvP1WxyI81PMg/EdQZs4eGDKXe3SxESypERAREQEREBERAREQEREBERAREQEREBETXcc4kuk01+pYZFaM+P1iB7qj1JwPnAjL2o8bbU6hOGVNhFIa4jxbkyqfRQQcfrMv6s5Hj6BNI1aDAXby+BH9Z74KHZbNTYd1lzsxbzyxJPzYsfumVqKhYjIejAj/zNPk5Pvn4j0HS9L29Nf3ZT+nX9ouB13pwqhLHRGKqpRiAqJp7Ldyjpvbao3HOMcsZOcbU9i31gT6RqHV6d9BcKpe+kNuqZmPjtcg8jzzMLsd2vqprr0msOxqeVdhBK7cEKCQPdIVioPQrjnnr1/Be0NWssuShXauoDN2MVs5P1FzzJxz6fmM5Lcp4cftk9L5bWpAqqozhQBk9eQxz9Z7iJiXJWeLHCqWY4UAknwAHMmavi99lulazRuljqyOgR02uEdHZN4OMMqlfLnJkRa2l9KurVuoZWBVlIBBBGCCPEETi+FNZwzW18P5vptSWagk5aor7zoc/WQZ6+ufObKzifFLBivhy1E/b1FyFFP7leWb8JrNLbRTq62u1J1mvbKIibQlQbmwCr7qKF5lmJbAJxLya2raxO31gbXaVPFaXc+m9go/yH7pzvDeJtwzWV6tM9252WoPtKTluXmPrD1XHQzP45qxfxHVuMFa9tCn9wE2f42aYWqoFlbIfEfcfA/fKd/blHV4umnL0vzu2J7ouWxEdWDKwDKw6EEZBHxEvSPfY/xg26N9K59/TPsA8e7bJT7iHX4KJIU3HCIiICIiAiIgIiICIiAiIgIiICIiAiIgeZHvtm1pTQV0L1utVSP2UBs/zKn3yQ5E/tjbdquFp4Zsb72pH9D98i3U2thj3ZSfmucVAipWOiqB9wiVY8zKTmvYySTUWdRpksGHUHyPiPges672S6vdpNRpjgPVYTjx2uORP8SMPkJyzuFBZiAB4nkJjdnO0tek4itwJFVg7u09ORPKzH7JCn4BvOZ+Ldljk/U8cJrL03/dTDrLHSux0QuyqWCDALkDO0HzOMD1IlNBrEvrS6ttyOoZT6HzHgR0I8CDMlsciDkHmCOYIPMEHxnM61H4fY+oqrZ9M5L3VIMvW5+tfWvip+0v8AEPGTJ7OXv3bni63lFahsOhDhDjZYBnNbEjK7geTDoQDzGQY71Om4DrHZzY2juyd6n9GVf7QKspXOc52kSRuH6+rUIttNiup6MpyPgfEH0POY+v4DpNQ2+3TVu/TeyLuwPAt1MnHLXlFm3DcN4Dw3dZUvFhZ36GkIGrLe+6MCoBOWygGMeM21/D9HwPS2X1LuuYbEdyC7O31VGAAFGNxCgcl555Ta6lOGcMXvTXTScHBVV7xvRQBub5fORl2l4xqOIWjUrWVqq/u0OCcZyzkD6zEgZx0wAM4Jl5LlfTeld4zyvcOoKVqGJLHLMTzJZuZJPiZkzF0GuS1cjkw6r4j/AKj1mVNXPfddvU8HZ+nOy7mmw9nWp7jjJrzhdRWwx5soDg/4LP5jJrkBcJs2cW4a/nYF/myn+syfMze47vGPM9Zj28+U+XqIiXaxERAREQEREBERAREQEREBERAREQKGRL7Yht1fDH8DvH3PV/3SWZG/tp0hOk02oA51XYJ8ldT/AKkQfORZuaX48u3KX8Vxs1+t4qie6nvv0wOYB9SPyEytRl6n2nmyHHzXlNd2eSvu2cL74JBJ8uox5D/pNXp+GZ31dv6j1ufBjO2efd6q4dZaQ+oY+iDkB8cdPlz9Zk6munuzXtGPJccj4HPnLNl7N1PLyHSW50scccZqR5nPkz5Mu7K+rZ9lOKWacGl+I2aZcjYzVpfpsc8qVPvVnocggdfns+0XGtX3qUV8SqZO775rtOuzluKhWbe3lnkR15+E5kiYV9SqLgBjdU3TzRlb8gfumHk45JuNnp+SXOTLx/vwvKL67Wt0+rBsbmTW4WxvioOG+HP4Td6Hj91qhbuN2UnoyHTneMdQHrHP7wfSRxVbtcNgHBBwc45fCdfoqdZrWbuqnZym1wpr9xWIwckKFztYYJJHWYu2/wAtnfHlLZufHs8anRJaz6jvbTSOt1xDW2YONwUc1GegJJ/IW9Dq60tBoZ2VsqwfA94DIIx/71l3jfC9ZpVOnsq7veTlsF0bcchVdcj024zNbw7SNU4RgQxO7BDqcBSM4YA88/hL4bl3tTmvH+n24yeN2++2z12lC5vpbaV5svlnqR6enSbbS2l0RyMFlBx8RNNrQSoQdXYL95m9RAoCjoAAPgOQmHq+3c15dD6L32ZW30eeGrv4rw1f+Krfytu/0GT6BIR7Cafv+NVnwordz5Z27B+N34SbxMnHNYxpdZl3c+Vn5ViIl2qREQEREBERAREQEREBERAREQEREBNN2q4R9M0Wp03LLoduegdcNWfkyibmIHzlwS8tXsYENWdpU8iPIEeGOY/hljRjutW9f2XBI/zD/UJ0/tG4OdBrhq0X9BqSd2Oi29WH8WN48zvnOcZIU03D7Ljn5qef3cj98wYfZy79q6nJlOo6PX/WP+K2rhmHqZ4l/XLhz6gH+n9JYnQrgR5RslwB9Tbn+LOPylvV1bl5DJHh5gghhn1BMydMvK8+ez8MzxK2bnqtMu3LcWezPZvv3Y4KIhwz5DOWPPap6KcYOcZGR5zsDWvDL6NZSu2oFa705kFGYYsOerKeeep+ZnLcP4hqdIT3ZDoSWKN5nqQeoPL/AMGdDT2m0mqreq7NRdSrK/1eYwcP0HzxKzHHWvdfLLK5Szx8Op7R3afu0orue1111bOXLMVNivqFRWIAKBRyAzgTke1+pR3rpABZDvZvFcjCoD6/WPwXznsdqB9D0mmsbfbpLLMAHIsCVtVQQefIi7r/AMNjOedz71jtliSzN5k9fl4AeQAjDxo5PO1NKm+9fJFLfxNyH4c5trrAis56KCT8ppdBrq6q2d2y7kttHMgDkAfAePXzl3XDU36c3LpbhpwctaFZl2jxBxjA65zjI5kTS5McuTk37O/03Nx9N02tzuvrr+Uj+xrhbCnUa1x7177V/drLbiPi7MP4BJLmm7J36Z9Fpjpf7kIFUH6w2+6Vb9oEHPrmbmbDj27u6rERCCIiAiIgIiICIiAiIgIiICIiAiIgIiIGt45wmrWaezT2jKOMZHVSOasp8GBwR8J8/douGX6AvorxnGGrcA4Zd31h6YzkdVPLpgz6RnKe0jh9V3DdSzoGapGtQ+KsgzkH4DBHiJFkq2OeWO9e80iC5tyVv+sgP4A/1mNbU7qVQAk/tBceR9ZdrbNNH7uPuwJ5mz5afisngHANfqrLaahXuCqzmxsAKSyqQVBJ5qfDwnU0eyzXEfpNZSh8kR7B952y17Lb9vEmTwfTuP4ksRh+BaTJMWVsumfGSzekWp7JGx73EnJ/ZqC/m5lrVeyDIJXiDZH61Qb8nEleeLPqn4H8pXdXkj5u1PZuyrU36c2jNRQbwrANvQOCBnlybHXzmw7M9jm1+m1li3EW6ckLXgFXITcuWz7uSGXp4TYdtiV4jeASN1dR+Pusv+mbL2O6sJq9fUxwHRXA/cdgSB/zRLWTtlUlvdYzOzXCNHp+HabXJo67bbFVnt1NlaU1E9WYvkKoJwNqljyz5zveCcSq1KEDU6e9sYYUlSgHlt3Mcc8ZPXyHSc/2Es2aBqUYL3d99akruChbnwNu4eBHjOi0d1yn9Jejr5Clkb+bvCPwlGRx/s6f6JruKcLz7tb99Uvkj4yB6BXp+ZMkiRvwte87S3uvRNL75Hg7sm1T67dp/hkkQgiIgIiICIiAiIgIiICIiAiIgIiICIiAiIgJruO8P+k6XU6cHBtqesE8wC6lQSPQmbGIHzjxbg2v4eAupoPdryFi4avmf116ZPQPgzFp1KP0PPyPIz6UdAwKkAg8iDzBB6gicTxr2YcO1BL1q2nY/wC62hD/AMtgVA/d2y8ysUywlR52R1PdcS0Dk4BsNZ9e9RkUfzFZPkgztR2Ft4VSuuTVd8Kra22d2U2++Nrbt7Z97aOg+t6Yk26a9bER1OVdQwPmGAI/AyuV3dpxmppfnhhyPwnqJCyD/aDTZ/aI2VO5ehPdrVnPuvYCcKCccxMX2fcC1Os1T3V2WUVBWre5DXvz7jd0u4HBPutkDliSE528UUeJ0jf4L0/75Y9mhFV3FtHn+71RtH7ty+6PkE/GTu60ds3tY4j7LaTUVo1Ny2bgxax2dXycvvVdvM9dwwcyzoexvE6MiluHUZGDZXVcbMeeXzk/EyTIkDm+x/ZheHpaTY1t1zbrbmGC5GcADJwBlj1PNj8B0spKwEREBERAREQEREBERAREQEREBERAREQEREBEpECsSkQNZ2i4aNXpNTpvGytlB8mx7jfJgD8pofZbxE38MoVuT0bqGXxXuz7gI8DsKTsZHHF/Z1f9Iu1Oi4g+nNjl2rHeKu5jlveRhyyScFT1gSRKGRinBO1FfJeI0MP2irH5ltOT+MrbwPtRZybiGmUem3+mngee3Gr1NPENE+lVGsuW6hd+SmWepxzDDB+c3fYjs3qtNdq9Xq7Ua7UbAVrztUICBk4GTggYA5bepzNdwfsBqfpNWq1uva41MHVF3BQ6kFTknAGQDgKM45nHKSLCVYlJWEESkrAREQEREBERAREQEREBERAREQEREBERAREQOV1/bzhunsaq690deqtTrB0JGQe7wRyPMcjN9w7XJqKxbXu2noWS2sn12uqnHrjnIf8Abr/tGm//AAf/ADyT+0naGnh+m+kW5PRVRcbnYjIUZ5dAST4AGBvZSR9xLtrrNNo9LxCzS1Gq9l/Rq9neIrqzoxcrhiVXptGCR8srtH20so0dGv09CW0Whfru6OrNnAKhSCBjB58j6c4HcTA4pq3pqaxKWtK89iFFYgAkkbiAfhOJ1PbTiJ0Ca+rQ1isKGdrHOT720lEHMoOXvMQTzIXGCei7MdoBxHQ/SQmxiHVkzuCsvI4OOYIwR8YGP2L7ZV8U7/ZS1Yq2fWKnd3m/GNvTGz8Z1chn2K3iujiVhdVCJS25ztRcLccsfBfOd/wTiPE762ss0lNQIOxWe4O5+yWXu81qevMbh4qIGN2Z7d6fX6q3TJXYrIrMrNtw6qwRjgHKnLDkfwPKdhI27E9phqOJarTHQaehwthsevBd3qsVCGbYu4ZZjkz3ru3mro4iugfRIxLKAa7GZnVxkbQyqAfD3iAMHnjnAkaJG+v7d63R62mjWaStK7duDW7Oyqzbc7iAGKnqMD0m47cdsl4caK1rD23E7dzbK0UFQXsbBOMsOg8DzGOYdhE5ezieuqu0tb002VXvtN1TWfozsZgChByDtAD7seBAyM9RAREQEREBERAREQEREBERAREQEREBERASPfabx3iOlfRJozt71mXdtRt1gKhKyXBCg7ifAnB5jBkhTH1WlS1GrsRXRuRVwrKR5FSMGBDPtNVtfxDSaSra94qCOE95Ud2y2T4BR7xz0BE6f2ycMtt0VNqKWWhyzgc8Kyld+PIHGfIEnoDO50HCtNp8ijT1VZ692laZ+O0DMzYEW9mreB6jh1B1FlQZK1FiW3OuHRdpYIz9DjI2jxwPKU9oVmmTglSVIaUaxTXU/uvt3sdwUksAfr4PMBuYB5CQU4Do1s71dJQLM57wVVB8+e8LnMyrtHU5BetGI5AsqsQPiRAjlNXWeyx/SJ/s7V/WX6+4jb1+t6dZ79lGupXhV+61BsssLZZRtBVcFsnkD5yQP7Oo27e5rxndt2JjOMZxjrjlmU/s2gAgUV4PUbUwcHIzy584Hz52S4M2t0WuqrtPeIKbFoDKBdsFm5SvViBzXwBIz1BEl+zDtomq0/0a+1RdSAAzsAbKwOTZPV1xhvgD48u6q0FKkMtSKR0KqgIzyOCBPJ4ZpycmivJ/YTx6+ECIPZ9rKxx/WsbExYdUEO5cOW1KMoU/aJAJGOuJ77Qa2r/5Pp37xdqvSrNuXaDsIwTnAPMffJcHDNOCCKKwQcghEyCOYIOJU8L0/wDuKv5E/wCkCJPbFqU+n6H319xMtzHug2KQT5cgT8p0fbSrQcQ1VGjvs7tjV3tGoVl2sXZleogjawOxWHPJ54x49xZw6hiWamsk9SVQk45DmRKW8NodSjUVlSu0qUQqVBJClSMYyScepgQ3w3h+s4RxfS6OnU96tjIzIm4KamciwtVuIVlUM27Plz6iTjMHQcK02nyKNPVVnr3aVpn47QMzOgIiICIiAiIgIiICIiAiIgIiICIiAiIgIiICIiAlIiBWIiAiIgIiICIiAiIgIiICIiAiIgIiICIiB//Z;clipPath=inset(2.58% 26.45% 3.61% 26.83%);" parent="1" vertex="1">
                    <mxGeometry x="310" y="240" width="128.97802197802199" height="194" as="geometry"/>
                </mxCell>
                <mxCell id="aWmyKmu1LwSrwHYh7kKq-11" style="edgeStyle=orthogonalEdgeStyle;rounded=0;orthogonalLoop=1;jettySize=auto;html=1;" parent="1" source="aWmyKmu1LwSrwHYh7kKq-8" target="aWmyKmu1LwSrwHYh7kKq-9" edge="1">
                    <mxGeometry relative="1" as="geometry"/>
                </mxCell>
                <mxCell id="aWmyKmu1LwSrwHYh7kKq-8" value="" style="shape=image;verticalLabelPosition=bottom;labelBackgroundColor=default;verticalAlign=top;aspect=fixed;imageAspect=0;image=data:image/png,iVBORw0KGgoAAAANSUhEUgAAAOEAAADgCAMAAADCMfHtAAAA7VBMVEX///9cTuUAAABAQLJaTOVmWefl4/vRzvdXSOT5+fn6+v04OLD8/PyRiO2QkM99fcmclO5gYGB/f38uLi7k5ORAQEDc3Ny6urqMjIwzMzOZmZmpqak4ODiSkpLx8fENDQ17e3shISFUROTGxsbq6uqenp729f5gUuZISEjR0dE1Na90dHRQUFAXFxe+vr5mZmZtYeixq/Lt7PwcHByEeuvGwvZlZcCknfDd2vnc3PHHx+fp5/yelu92a+lqXee4uOGJgOy5tPOfn9e+ufVVVbpubsOWltNHR7XLx/Z9c+p3d8fQ0OtQULiFhc2VjO7oezdkAAAJmUlEQVR4nO2cC3eaOhzAI9IWhO6OtxVFVGxBUFfduq1b123d7h73bt//49w8UEHBumovTU5+Z6dHBGN+5PFPQhwAHA6Hw+FwOBwOh8PhcDgcDofD4XA4HA6Hw9mV86oz8Oicvp5VnYVH5rT/4o7tcjyVROnlSdW5eExOpVpN6p++qTofjwcyrInS0SWzVRUbQsf+zV3VWXkkUkNUjow2x6UhVLx4z2LkWBmiqnrBYHPMGqJyvHnVqDpLByZvCCOH9JGxyLFuCItR/P2u6lwdkg1D5PjiE0PNscAQR8cTteqcHYpCQ+goMtMcSwxRdGRkXlVmiKpq7VXVuTsE5Ya1Wv85C41xm6H0HIDZPlW18fZg+Xw49xmeHD08clxfPTtkVh/IvYZwzvH9QSnPntVHVBjCXvUhSwDnn+ujukKJIVoC+MPI0bi9Uup1egz/eAng7U8FCdJk+EcDudmvEfajzBAeXew05zj//CX1o85wtyWA66tRvU6rIZ5XbV8gf/tVUeo0G8K3xJflkWP297esH52GKDr+Pi5M6fy2PqrX6TckC+Sb0bFxfaXU16HUEEeO9YHc21/KpiC9huhZTm6BfPb3qMDviRheiuWK5YbwXO31Ijo2br8U+j0RQ3Dysl/muM0QVtX0edX11+ICfDKGoHF3I5WU0zZD5PhjBtTPRQ3waRnCZvRaLHS8x7AmHh2Dxl/lgk/HEIDj51KBI0uGQP3+Y1ORKUM4JPl00V+TYcwQNceLfDkyZwjAm4+56MigIRS6yVRVJg1hc3yxrKpsGgLw7vcicrBqCKPjR0li2xA0XuGBHMOGsDleHvVFpg1hc3x/0WfbEMr9+K2ybQjUY8bLEHMi7mH4JJ6u3ce78iWAew1H366rzv5OvLpZn3PsZqjUP9Oy72h2eVG8zLHNUKn/9RQe4u8AfqJ2/Ltf5LjFcHRFRwWFnJA1/DcvC3qcUkPlyy0tFRQaSh/wZozzu6ONYiwxVJRnNO2mOqlJ/Q/f0a7a88v1ZY5CQ0X5SUkDTEERX0q38R2fXkj3GSpX15RtMsZjGlGq4c0Yam4JoMBwRE+EWJKO2hZPuNW7jOO6ofKNqgaYshyXitIP/Eht9n4ZHfOGivL1n6pz+xAyI+/F3qg3p+lALmc4+nJbdV4fRnZugXbV4kdq31/iYswYKv/S1wBT8rMnsX/zCb1LIsfSUBn9oitCZNnYqZA+4cbPq4ihMvpJZQNM2ZwBSxenZCD3UcKGsAFSFgHzFMzxxf7Ra9ToGq9ukOFnCiNElsJVDLH/Ae+NajQY+DF4yTqNKP5g5fcYZStRoiSV7I2ijfK1NlZ+PLxtNVG6YKEU71svpR9uSD/ckH64If1wQ/rhhvTDDemHG9LPG7HsKT4rhuD4tPQ3J4wYLrbxMWwIHdE2PqYN8Ta+gqrKkmHxz6PYMizaG8WaIZhdrm04Yc5wY28Ug4b4kZrItiE4v/uwdGTTMLs3ilVD1BxJdGTXEDTI3iiGDSF3L/oi24Zg9v6oz7Yhihw1xg3hYJXybRgcDofD4bCCGQAQeKtjG72WTRV4pumVfooivPEUyEa8PJbbU/h3INiOIAiaXF3GDoYH7VTL9wZOBNTIGXjh1Ha8oGMmVhTZqu0MZDkybdOOnKDqvD4Mz0iigaGjEnMmQlewE/jKHwhR6MOz6G3dFrpak94S9c6E8VjQQWC3/ZbgBGoY2po2EAbYUGuDVjfqTgP9zBzOzaoz+yA8QwvsM33StoTY1uaGncQgXhkmwO1Gggv0UHZ7lBr2YE/T9n3DNeLAdgU3mYJpAmtpYjiTaNqL4jE2NAY6pWUoJzqQtc5kblkd1+hZ5lQHehz1zEF7PNYja24MTcsBumCMdUr/d3IUCz0P2KbnySYMhh76pwYwHtroyIYFF8hAb0c2nR3NrugJE9F/CwGlwfBRgbWcjWFfMZ5rdeEgoWvElXdPquMWMNkzVVkTUnoHyeU+eD2hgHDPO99cpqQdJpt7AEdtBST7JRrMlynph8nmHjyK4QAncuY6rr5vfd+f4lqa7FdLhyiNuX2gLO6J3GoSsOlZeuDul2gLp/XUhrEWytX0MGk9SUMZG2rL2umZxQE7UDcO5MC0I3jx6gwxzA6D0DXF6YG1q8zF8Bfl4JAjhpyhOolDYz43wjjtKCax7/uwTGw9tIEDD3T43bafmMB2fc0yeuOeEU4dnLmOr4corXGsww9F6C27qbXhJWehPiBf4MAzeoDSg/cBHcBmoQ46MKWxoaH2a7pxYsx7YedxDO1w1edouK7h+DYJYvh3AGdSkMicQgkbJNkOqo18jFyf5cCk48xxuEpvYPrwrw3Q317UXHZ53YGzSvVwU7aMod3OZjFENaWDO1gcWCbEUMMiETlY0oMX5z4Nr/CmuTfa9sIwwUmkd6ybuWScT+DwhpqQY7gwJLhZKQe4+Ytb62UYkUaZIQHZMY/grN2kdQ5WT1eGEU6467tuEw9N2nLOsJXNkQsiQ/M7Q9ftkIoFp5HN2E/boe/HehAQ47be1NO6N8kZuvcYHmzYtzIcprcW4uC6Y2cMLcdb5SiEXYscpH0fGWwbuJllo8UEXxqjPlMmSesZQ5REml43GUaRn75/pju2g+/NnsOrIkP8JWfkzTCVTQ17LtJJc3Tm5jsBB2fTXjckH02DAi5FOGBKDeeZ9Jq4wZmkJjg4TOAeyjq4ISmLtG5opB6RbHZ9Ep5Iz6CvL9sMig3x1VZ6MTaD1Z4YNr2NK8xVBVqceCRDy8GEWcN2kP3ijWC8zTBMDTtZQ0POpvd/G2YpNAyXhl5E7kZzB8NWqWH7yRkuylB129lQxqDhMH8tPYZdY8nc2WJork0v6TFMgiWmvMUQhwghhGNnX9vBsLyn+f8N82dLDXElPcOvoy2G1ppMpYYk4hs7GnYWnyqNFmRYSlY01MWXVGtIsrRYxwgcc5shLkNLXb7cNCSjNjwJk8n4pgkqNiQjb8HSOx0fzZFa2wxJO5y6rk+6nE1DL51NhVqShpWoasP12VO8zdC+ty9dn1/htaCKDe38DM/a1peCOHdtkaGcv8QyqzJsLw1BkJ2VdzVvkaOsYTs1DBYlPm7iT60MV4/9h6tV53GMP4fT66VJkMlMgSE+0T6UoTrMrJPKg2Zi9Hq9duI7+NHvQIcnW+k9n6CD4XJJrBX2eoY2tEEE3+/gu0AuX43NTXdq4eRaEZlxDZrZ9NDBkJzw8HKtnf2iQxluKsvyrotAqrrDlerOyXE4HA6Hw+FwOBwOh8PhcDgcDofD4XA4nEfiP3a8DwbZmfMiAAAAAElFTkSuQmCC;" parent="1" vertex="1">
                    <mxGeometry x="90.00000000000001" y="-173.1" width="176.99" height="176.2" as="geometry"/>
                </mxCell>
                <mxCell id="aWmyKmu1LwSrwHYh7kKq-9" value="" style="outlineConnect=0;dashed=0;verticalLabelPosition=bottom;verticalAlign=top;align=center;html=1;shape=mxgraph.aws3.cloud_2;fillColor=#F58534;gradientColor=none;" parent="1" vertex="1">
                    <mxGeometry x="465" y="-155" width="145" height="140" as="geometry"/>
                </mxCell>
                <mxCell id="aWmyKmu1LwSrwHYh7kKq-14" style="edgeStyle=orthogonalEdgeStyle;rounded=0;orthogonalLoop=1;jettySize=auto;html=1;" parent="1" source="aWmyKmu1LwSrwHYh7kKq-12" target="aWmyKmu1LwSrwHYh7kKq-9" edge="1">
                    <mxGeometry relative="1" as="geometry"/>
                </mxCell>
                <mxCell id="aWmyKmu1LwSrwHYh7kKq-12" value="" style="shape=image;verticalLabelPosition=bottom;labelBackgroundColor=default;verticalAlign=top;aspect=fixed;imageAspect=0;image=data:image/png,iVBORw0KGgoAAAANSUhEUgAAAOEAAADhCAMAAAAJbSJIAAAAh1BMVEX///8AAADg4OCenp7Nzc0vLy9WVlb29vYWFhb8/PxTU1P39/fc3Nzs7Oy7u7vz8/N0dHTFxcWwsLCQkJCWlpbT09OFhYWkpKTk5OS2trbt7e1ISEg+Pj5jY2NDQ0O/v799fX0eHh5qamosLCwRERElJSUdHR2JiYlvb29GRkYuLi42NjZmZmYrd8FzAAALM0lEQVR4nO1d6ULyvBK2gAiyQwGxoCAoKu/9X99pCnSytU2GToLfyfNLWUKfNpktM5OHh4CAgICAgICAgICAgICAgICA/yeM+sPp8ftfe/32dVivnzffi+Vq/ur7qmrCy/CYdCI91otV3/f13YaX6UcBNw7tZcP3dSLRn+2r6V2waPm+WmsM4k9jeheSf2q+vj9b0svwOO36vnBDLIsESzWOI98XX41ejKaXYTzwzaACzdv4MWyffJMowep2fgxN3zyK0Hirh2AUfU18c9HiWBc/hs39TdX+rk6CKYa+GUmY1cwvxbdvTjxGta1AHp37sXLmFPwYpr6ZXbCkIpjqRt/cMizoCKaulW92KTaUBKNo711tJLQEU+3v11DtrqkJpvBK8dcBQa8UyafoBd68RpQnj0Gn54fgtyuCUbT2QpDAFC2GD7347pJgFM2cE3xxSzCK3l0z3CEv9DleIs08xzrDIFqvxTm2PcZ89eSUIDbkdA3eoxTpwiHBEZJgLhFxHuXcHUOsqof9lxPm6x1nBIdIggcYYooawNU87SEJRksYo4sbwdFO4xbLkDegcSrjxwlBtK4f1zCKkyhqG8tQDA7ipNWXA4Lo0KGksSe4UZb6q6oTaK93JQ2E3EclJ4iP/sojIbdSyR8i2q8/yiMhDaOD7qpqRANLUOMa/MMNJM/2moHyChg0Tjpywu9JCT5hCUawqwt72I+4oUgNcPQmDOixCYgcnHFKu7GIvOt88sGGe5zIwQhji3g5k5ukr1H0nI+HjGcQyhp0MgJMLKYFc7GKvGPP2ourBbbZeDlAOBwiPjKINJDIdtzQkxRM0rM1mv+LDLqSTVN0Shfsx5/3UyH2iRvvHxVDdMZFPsLr+X9wZJHGKRFBZOSBD69cCb1IlG1BpPSRHh3HJ/eYgDMuDYAotw+72QTCHe5R/hLOOCXSF1jfF2wYCICANDRPd+dBQhC7DMEk5RbdW/4izjh90V3hrcDG2GDN8IIzj3zibhxJzA27JQp2Mh+ZAVmDCr+SbJgiVddHPoAoi/PKA5SltKFgiHTvQXWJgVawczASjGQzEWfRwKVIkSdIr0Bt9FAwRBHkHpVs1fZvGpkiiQjHEL6/k97Z5u9gVjiB3TZAEQSR2VLe694yNEGxG845BM2sGqCyT2UFAoXYxxDk7Ec1PgBCSH2+lSAI7qM8Cz7NR02Dg7W0sx6ZwLvAMBT3GJRg67j4rUoQGDWYFJpYHEKZ6LmssU8NuBOGstKSK09gMVkbTAQMEV7OhzqKaGbDJou1pCZgiFiHOq28KviErU14Fwz11nHjwH0EwoK2ximBLLXXh6DRhfXY5X0MeMdycAJ9aG/TQO15W0zX4kJaTd2LJiAIe1sHMYAV228SSu1hxu/y1yyNUwK71FplgUnK/KaOEDsa5DYcXKmdcUoRE7YkyJmkZ9kiJmpf0xRgf9/OOKXIibbc/wVC10sXLZyrQwxdar5shicgaJvaDV/Ms0rEfIy5zNvGOP2kYGgn7ODCufjMpzC3RlnhG1jnNokeJBUmdoYpTD4hPiO2EhiLL1kYp0qGVR2wUvncHuZBeEO0RZix28b8AkkNtFX4HYS5LCJFc5yRgqlrnt9OU8huUS/KZWYp2WuPQo+vXsIZ0eYLgaZXj0X2C1iNugxEUVsfObFrOj5RtZ6F+Q+3WJvdIJrNK7AxTRN2iCrZzBNCt/AlvRoXktofYHfK1Dil6u6yM2UINmiRKXYqiMobpslTtcwynUMJfKU4S1ZvOpv52WRpX6ZZBWCSlk1svUrbmfwAXa63IUP4QmkW1Vb3E0bGKckufgYzs4rzIXalH/zRJIqaGKeEtZZmLtyr+ec1ponBXaQsSDAhyG2xVztc6haSwWKnrAg28aAgLmGiQNWSwkrjkLQ23yAcxfmmRlKjLeu2yuA6bTO3ao3MLRKzlOKOLBmrvkBK0EDWgHw0TsqTHkpFChF1z8GqeNQWPmoe2BEN6QofirrPSZWDAZW6NmGXjflP0Fc7ly8uznGz2tf95Nzi8uQT+m485XeY02+WpQuwGA9lHyMJQUkoW4ncxr118u9VgpQbNS6am5WJ08378IJ3+4LoZ2bD9ctLON00b6VrD7V/25V/wFHfCFz+Vy1w1Zv2xnbPeLjrFoWu8LoR7vq2oXLcbofLdqZOO5ld4bajmYuOkDLc9vlEVmTdAtcHRKDLvLCIq6+pZjhWGT7aChK31xXx64GgW2nj51yhHv6kDlv4OmvHmUB12IpOgiMb3OdZEE4o+j3swgFF30dBjaj9DP8HJHR/KPkd6LYKLUDYE/rtTs64Ijv+YeubWQ6iIzzu5QAPhh5B/O33LpYgoPaZ6rJrsBkGtR4jsPNnqJWgpjPJGNy7u2boorvTitjc8fl5LzW4xeu7nKCAObpF7Rmn+zxUTkAf2dOS4ce3mW2IAbJz3di/lW2OofVkXU89HbWCxmhqYeesm3dmwBiiNxwbeI+dj+mfPqF7MFyUGDun7fRvPjwZg9Zy9pGc8qz2zulnc1xO/up53CXo9p4Y7sStDQgICAgICAgICAgIqAndpT502W8KiZ6tluZj/VU8mx2Xw7mSEzpvteSITPpShvlA41j1W62yvNI5+6FZPJ00EHGehT5ndSTWw7NeC/JH+OzM3Ub86Y6SHsOHkT+UeFtSspU/EqLs1nWJ7NJ1ufGsY9RW+JicYC4VLChvSgzFT8s/2S5mKO1bWh/GysrkdMnxWU8sKB1RGbKkvkXrNfXmB/NhvJG6GmsZTrKJOlmy/uVS1LuYYVZ3FM9HLHLQaK0W1iGf7Eloguznrl/5cCrDU2krLi3DfCJvlDLfYobpnezckvqdToGFtvT9zDCvpFQZRqX5vFqG+YWOIrk6rZjh5saN8I/0dxe6yvCUYTuBejOV4Wdpmk85Q/aPuLlWzPDttoy3J5a12tftNjOGPRBdKsNtaR5MOUNVMhcz/L7tGTYz2bTW9KBosLnLsqDn12uSGGYVzoXtR8oZxsqJVcUM02vo3BCZ7GT3cqW5TRnDTOVlq02jLQa7TOzrVbCW4eVCn46RooNLtEW6EA/v2A2dyfkppJf/KL91ZsgKvLIWHxqG11rehU7SaRmuM7AuSid5i7uE4bkQd/eZorOtYiQjuai8hbqaLwzZUmT1jlqGD4NzFfBY3ZKv0vhyDWUJwye+VtGEFYeXqxXUUE9yuzDMaoMmRQzTIc4/r6xHLcPv8Rksd/zTVFtk6333vc1g2+D73BOK9eV6UxbGlWGWJfRayPBqNe6lx1i2DtNnv5Z1cDHDdJ79YreNmcwepBbU74DV/UqWYs6QLYNTCcOHh9exavlV6MOnSFoXhQwbqlQyxzSbXe1sGipHfwJD1gVq/FBa2sm0iiiNKxiyOmDhlhYynMr9pmxwOtsyzIRuxrJxyjFky3V6KC1ejeXrqGI4k9ZuIcPlDclv8ysHdrbMSS7J4RheatfLGK5kUVXF8Fl66IUM3284p/s797VevkRHgqGhHNIoMRRkYSJ7phUMW5FUIVPIsKcsAGOMOO3SfVZ0lMAwqw0SGfaipHkNXswTRRxoGV7/HDD5vBXeTRlOG/0cnJnG7m6eg9PtW6QENIWVkKX/8OafyJDdDlEUXXIUH5PkpHO9qzS+7LBJSSv87TqHP36TJMnMRPMHKk1LdsW8TmsIHdnYtNo98OgLXREeZY21UxiKffnkKIaUKC9MCDFv11juDOKmuHIa/4S78xo3hf9XG8VLa0wX7bf9ft2OVQdu2Yyl/JlBM8dSXXLdJo9YMrRb8SbZ/56SzWz6H0ztCAgICAgICAgICAgICAgICAgICAioD/8DOtOYfFCJVkEAAAAASUVORK5CYII=;" parent="1" vertex="1">
                    <mxGeometry x="475" y="70" width="125" height="125" as="geometry"/>
                </mxCell>
                <mxCell id="aWmyKmu1LwSrwHYh7kKq-15" value="" style="shape=image;verticalLabelPosition=bottom;labelBackgroundColor=default;verticalAlign=top;aspect=fixed;imageAspect=0;image=data:image/png,iVBORw0KGgoAAAANSUhEUgAAAb8AAABxCAMAAAByWF0wAAAB6VBMVEX///8AAACsrKxycnLn5+fJIDfT09PMIjb3miM2Njb6+vrh4eHpeCbq6urv7+/39/e1IEyenp7GIDq8IEXPz8+lpaXGxsZ5eXm9vb2MjIyDg4PDID25IEiwIFFLS0uWlpYxMTFERESuIFNeXl4eHh5mZmYnJyfhYCq/IEGEJ3eioqISEhJjY2M1NTXmcCfkaCndVCzZRy/zkSRVVVVJSUmpIFjbTy3WPzDIAB6nIFrfWiu1tbV9KHzyiQf3niz1lCT1kgDiXh/dTxfYPRnwyc356OrHABvpsbf129/AACiKJXP95tDzmD/4yaX98ej827r6v4D4qlP4wpX86Njys4/4qEXpcw/418X4smfwq4HsjE/0olj5uGrtijr1yK/vjDToejfyuZ3upIPul1zoiWPldEbunnHniW/olYPtp5TwvbbcRQD10Mbjd17dXUPus6blZADnoKDWSk3ZZm/WNR7cYVbgenPlko7TMi3QPk7UU17fgYnaeoPmpqvNBBfUXGfJY3rYkJ/Ga4TerbrUlKa5UnjIeZLLp8GxN2edSYWTHGimY5WQFmardqOYNHncwNK6aZG8kLKPPYKaXpZyAHCebqNwAHV/MobKs8urhLBxLIiLV5xLCnyhlrYWAGBJOnljYIimproeG2A3oc1wAAAWRklEQVR4nO1djV9TR7pOSEgkgYSPGCGAEgREQPxAlAi6IKQk1tV2r3W7vXvd9t66W61drdoW/Kiy+FG3VcoVLNTb3e79S+/MnJNkzplnPk5Cfv645vn9KpRzzmTOPPO+7zPzvufE56uhhhpqqGHrEZ2sg2hv8tRMTNJMXXukSh2vgSCY9kuxx0M7Q/JmBuJV630NCvr8/pBxMx2qZuqq2P+3HFHVuPuHtqaZyWrewduNFuXAp0yb2a1sxtyMa/CIMeXApw1bSSpb8dfiX7UQVw/8sGEzDcpWeqp4A285Qmr+/DGjVtrVjYxU+SbeYtRp+IsatdKnbsTLMqQGT9ij4S9h0ohuEiSrfRdvL9Tyxe/fadLIsKYRMydcQxnQeD6jBcROTRumIqgGzwhqht5/1KARXRs1+VI1aIQjgb4N9Q6AvyZfqgidfPH7tbkDzQrSX5MvVYR624tCu4DQT4GafKkadMrR72/XtBDTtmDggmsoD1r54vd3aJpIaVuoyZeqQS9f/AF1CwbmV5MvVYM+dvkH1C3s0rdQky9Vg16+aKJXk0ED3qpozHGuVlZjMPr+oKqB/konQNl499TJk2d/W522twvURQ82VO7PpIG9Vel6ZPo3vzly5OTZc1VpfZvAQL6oa4/2GlxfHflyfnoHJfDIkTIIPHf+/P8P2pU1YwUodrB1yV8Gc/kSC0ZCiWQiFArGtaHtvekdOxiDZ42bL+C3O6anT75rcGKc9GZycrI9Gd3CSBsJxhKJBLlF8VCiZYiiZdIXbRmyEj+hlhZF7ZcuecTQX+H1yvhpIZ6sS/W7GmsYSU0qyp7e37HDIvDk7/Tt8zj3PmGeXPZvyrMioZ39A1xv+va2mGWyVQjWBca4fM/uVNI5L4pHmKygN0/3Jg/IGzQZfkUJU8Lkcm3yKLonLb96b52k9OkUYe+URaAn43h32uZdYbfRjgOoLz1D+jKs6GRLh42WSWfuexKJ/QA/K/Z0EN76OlJJltWjdhfwq/yfwe4LhfR6xbhzDCjvN6R34SPICs9NW/xRU7qg/AQnfjddtFuZB51U3NYuzVrIVcbVUDwQl660+/lJEbL2K1lKIGXHJ7n/NJIv8gyE2eUK+RLbo99+pRgTXRfj7wNKxdnGi+ox5fGeRR9zoNjv7tR0KaWydmE1VaBbmWLjBEKdlS9g1ZhjdDoMqxIIRvJF3kCP0dVS+RI3/HgKoQycucH3GX2NF3+vGFIHPrToo373yJF/ByfU6SfUsLwiKCK5+aSm1VKNSsDydoTuhL/PN+kfG1LVzpqof7+UgUmzq2UeR1d04cQu19XnKRMfMvoaL/5BeofO4f3oCKPvAxl/CbMZKfUooh5gGkQ/zEUXmfbvpj/6/buJC00M+4O7VAUQhmMnccC6yhkLku3TmMnOHQ8XgZeOEBL+yOhrbPxIfoscIh9d/A9K3/unmP888qH7eMC0L7ItfXFKEu0dHAAtuGG7uIitVgbIj2H2QcOVyxdJBsnQfrB8MYy8PJwu9NLFj8/u+OOfGH2NN0zK8899fLGxkZJ+Cse/kFksZnB7AxviBAiEFE/VcbA1vi1fYvQHneCx+BbIF8kC0PDiFnSth8hXgmMdeYmQ0fgH+s/o6OgNgwAY+Xh0tLHx7PR7pwr65bzjuEEmhgM2CjP3C2HFqJJ8idIx2kM9sjf50gD6ABeAQFHFUEREwdMg5wTg8FqEv9HRC6MWblxSMcdA6aMEvvdBQYCedGyhGUqBIpCI0RcCyWGNcX9RvjAu2W9yvQt2T3pgPhY0IUotYh/IpYLaF29TvQTeS35yg9DB/jl48ODMf2rpuzxz8CAh+sJ//YniLPmPly9xuF5XAsgyzTNYajDvEkwya4slyf9FkjH6m2LXB7RCpNVR8a8gvIi22wKJ6dnC2+RNmVB3cOYTQgrFzKc6/i6zM29c+PPFRhsXOZuNmUkxB0AILHdeMujKjEQg+RKCzk3cABGtlOpMEKtF+SLJ+KZTk4lgPB6PJdo7JIqN1+3XCSEzn1BS9hFc1tzqFzP79lEzvXBjtMhfyamUQx9ySka7wTJ4z9IA+UK9MAhiogQSi5aocYCAKsqXNOr9LucmN34ehp/yhL99M5/sK0B9p385fYKcM/PppRtWEKT0lTbd4pLpMtA/1FI3tEu20BHSahEPAlZ9c2YAo00nAQiAAgmiDY3RP4+IlwryBe0kHRWcPMwL8zr4OrGomeuX9+07waBcQHx2+hA5Zd/laywG2gyWzCeNPmtvezFwx5NQ3PS5P0a5HNs7NBkNBtuHpPUKu1V3AAHMnTlhcRoJ61VxocPsB3TLLV+QPEJTD61t+G5cP33ixOkrX1DuDh06dFrF35VZcgY57/fUh1oM8tEPjWjAlfNKINNyeyX5cmyMyxPJdg09P+ODzD2Eb8i9hSNaB1sPgWxuj/tTQbUoXksBp8bvI1wl/J347DNK3qFDx1T8XZ09duzYoUOfX/t0xiKQMljasQGiY0DUfHEQIt3LKtmiNu2SD5Kkt/wOMJC5S/ox7IrVop9k4wcip3vpD5ZIkvQiGFfejV89TXj74srpQ8co/hrPym7z2uzhw+SM2etXWBC0TPBGce0HUphwdwz5DZdvkQRKUQFgAS67ARnAaFtDCcSDs6fiBLLEE7Atd94ARD9Jeh70go+l16hVHWO2dfjw7GdffiO5y+zs8cMEs3+59jkLgozA0nofzCdJvTkYLqddSeQL2r9A8VRTZisCmLvlycD0cO42CIHTDuVgArp7L76mQqabAX+8W6P8HZ6lxkVw+8uFm5JmFo8fZwRm7SBITXDmz8XDoieRPi4gelCnAsXyBeZuUN2CIId0AKNtrSGB9nP0VPx06zqwJSOs/AX+pNMOTC/ei+coc7ev3Wb8/fXmwgR2oLcmblICb+e+YkGQMThTWi2KU1Ve7CNuLjkdLUyn4afP0UbbmPSDMeLA3JtkrTskRtp91K4SACFCYMet0fqlj5aJ+qWBP5xl/F09zhAOhyfmUCNfToSpAd6+emWWBsFjFoGljU/hM/rku41i1HBGbiRfZKSAt+VoHjMRgFZYsrtyCFBRJttCGvhdcTbHo9H2UNQGqqGzAbyRYxJlbzNevrLpC0/cB43Mv0OO3FxY+Nrys5YJnr5WPC5qJEWto7jmdZIN9h2luWuwdNM95uUGMPfCFBBTELxzFuy2YBcgYsHkkRHALp7DicepX1z45puFhZuUvnD+rthGNh9m/B3P2kGQMvj51VIbwkcoa63EHjmcB/Bn0j0VsNHh9Q1/ir0uMHaliSSyVJBhIH1t9PIYBLQWdq7KFsM3jy98ff+2RR/kb5Edaf029/VCkcDPS9YHxLCy1FgUMDx/yJ9JcwfA/ry+4S8tH22w9CoRIRwqOm7g1Mt9bR3UAs7G7oTD9TdvXl0I2/zdFyLXPWZ+xLPOf7tACSQMzn7BJ/1EP6OsJBV7xLtHMOMapE2BdJXZwBSBViuF6QS6UvRdovkVrgLyxbMmtluChSiudf4tyk4+N2HzNzG35Gpl3j50Jxu+SXCcUPjVl/MPSu4TqHgVfyA88EtXo737AkRT7jEcmwIU8gUdK67SBNqLqgJsC3nVVBSxhCQ779pmu5tnrLXa/C0u3XMez9r0TWTv5MMFTLwTLp0BNj73Smv94yglwoeHtHhY6j7BVDd+z6oN1V4XWEAUmBDvoujVQPLd+OW99ueGdo7IE+GuAH+f8jMx/8Bm5pY7AC6G6xlj8/cnwiV8W1pm4Ae/Bw40IODKFj7nKh6Vex9gIF7lC9jrKpm76FvTsiOl7ZPy5Us8kWwfGtmtqWFwzWbmHvN37xaMK+/0n0v5+npK4IMsT1/+TukMb/WnENz9AUrkGT2w0vL6cAwQG6XepIVjfbJ7LrUIpqhWvkTbO0bGDLPfrsasyPdg3uKvvt65gM9N1FOE89lFjr4wv0sj3qRncPoTaAZ5RQTYBfaq9EBvSmoKRCDWVVH0lMwPuCNlSis4FDApbC3Cnd+Mv8MWB3MWUYSquXnu6KL1R7f35E4xeXBfA/7BLiBf5I+6iOPboxoqAGDu3GiDBQSzb3HelK7xJF+iezyXnLgDfKQ+TAnKFei7tXirdPBuvrW1lfzxQfadeo4+PkmxBe6TV8Ti7ouCEtFVea2eAPJlRHmUxlfRxDgXAWqXJPIlsrOcOlchwD+g/OXn2Q+Czvp88VAu39lJCcxn74TrCwTm87yBei74BOB3FcWjCkUpnmz0llUOSvmCrJNuzwlmz09AIF/gloKXp454CAH+HlUo+SUiVFot5IsR8E5nJyUwf3/eDoPU097N8RESJUu8gmPIk6IEJ3vdfVHKFxTL0shD8ttNwCGi3ILZ4wAAwtL6PuWv/s5cnpFHCKsvKND51kFGIFm5F7xrePHeg3yOu9royX0NOKMB8kX+2Dg42esb/kBv+HCLik/EgMFnR8x2X5rQJr0RxEyMTRz1lTYeWAfigwTkf/O5e/U0CtpK1ClQK6qVtsEZjejPFJko0QP16BlzAMw+R6rO5K08zhlmVEdiNOmH4YJCjCbZCWp1+dyiRR7lzDrwZLCNMti6ZDFs8Zevzzmu1r5zVg8+eogb0op8rJg59/qGPyBQHKkTI3HmqHwA4yHIFy19PamWBHUDYPqAxdQgc5rz9yh1DHm2ust2trUxAiODLAoyIZq/6zIH/VsTdRjmp694WFFPLZ7scaNKI18MnyxzjIiBfFG8q6kn0FGXKDlw2frFiXuEv8HOeyTaMbS1dTIP+bCtixDYlp9bau3stBm8Nb/kqq+AxWLpgB57G3p6enYHUo4JBW5NnorydDIGkC+OJkxei+WcYOAEV0yWPV2VTiXdmw9gMoCbuM+Ia8u1DrZZGFwmf80NdnURAgcfZlutMMhWEhN3XBeDjoyV/549T4qkOvLF0YTJ5oRj0IF86XF9Jpzxwy1o40j0nyia5OopfZ1Zmz7CGhWgD7so2jrjDwdtHUMZnMi5Lha7Is/W6SH6M0U5YFXki6sJ/faIc8Wply9w4bAHizSRargY7mRGN0ccpoW2J4TUtubmZvLro7lOKwoyBuvvua8V+1J2rYAPyRdFJYZ48lbLF4P3grrmF5AvToJRtqZPsmoF58K94IfU6tqWlm3+mrsIf39rpuhqjnRZLtVeSgjVheJHVPKWUrG1qsoXsD/tyhWDAhsnXLMVKEYnOWDXpUfm9U3TK8uDjLZcW1ezhSe+bHN3N/mlbe4R9ac2gYP17tz8FvMHiuWqKl/S2iZ0yyO3xYNTHOwg8SJNmZjJF7JSoPw1t2UL9DU/8i11d1MCH2bbmplHZQx2dgmXAhOvgL9K5csWJI9cn6d7N4/rZgE9TjkAFpTy9zKJ50oWw93MV85Rn8l4W/b19vbSX7J/Y1HQJrDVLV7gEFTwekHwxI/8ZFHrKF4wCKHbfcGn8HDLCeDxnPIlLRyXv9UQTFBJcesjZnlLy4w9SttyNyGwt/lRjh2wRE1bp+g9UQqngq9YFhWJp3duKk6GAKU4bn+oeRWG2zuABbej2ha4K/lwgcyOJJVNPCehrZcGPcpbr+/x+Dj9GfmORUHbBB+afYimALp9Vzq9m6Khf1eL8/5BLZ8n+eI1eQTii1DqphSgQu908kVTe+cAMn2Zb3tM6WvO9lp4kh0n6O1eYQZZILAZRhePKfCoc0ffuTVfqXzxunJJG3yeUoAKIwKKSR3ngHpjae/QzJGdu9xMA97KE/Lv+Hh37mmGEvg4YkVBm0H8YJLZFl0B7uWtk79K5YvHlzMbaUHVu0yE5QrOF3IQ+ZXuT6A6S+leftyyu5Veytt3vmd/z2TGe3OP2F8tAruAdqEAGw7yGgbBJTiDO1gbSZuqjnwRU3WKHWwxs6WVL+JxGX/wKUh5aHrCmCN+M5PpXYmdOZPJZH7M9lpRkBLYLXuuGk1iWRJcHAuneVUoX7xWOYMZLn6eQoCK3yegky+IFOw00FOJKq1DuRrvzX6XyZx57Pv+zJm/Z8bjP7IoSAlsfihfWSE3DWNyRAyVzhGIiJuNcvkC6ja8yhew+yJ+nvxrqYDlgGDpmMtoMkBJGcGVTYrI9GNmPDO+/CiT+eE5oe/Mi8yjHLFFS8d0LytGAb4iCFgg2MlwiXWw2S+XL2Aqb8GTR+Lnyet7wMCD3W6HeaF0VA/oWVTyBiPF/kTuhxfEZeYymWf79+8nBGZ8j4kPzVADfKTUBXiF1OH0jE1o190dP0Coke/lgI0RVS8NOw7kUhoPJVp3A1t17r7AoCakFKSVacpXM3xPjS6bebF/PyPw6YpF32NqeysS8cIgeUzmQCpJHwuONAUTku81cHsDED3knyrKlx7V3QGonjziIHuZMLB2MAGdMRk746MOqw/JXwqqDPBZYnRnVp7vt/DfvmcvXvy4THmLrzx7qrpQ9bqrYcWrzARfJUZSRfJIPHkLSneRXJIsINBYglNdMVkyHH2BukRTLBZMDo2oEo7q9Moq4W91ZY3Rt7ayQX959v3z58/O/LCqHojySmBE9eZFvgB9pvp6KQTJa+vckBTYIc8ONrz06SUPkKuB+Orz1Q1qdtm1qakpQpzPtkNqlErr85X5ulxxqCrdfdnCB6c13YLd98FqUVeIx++DNIUqM5B7vsbs7iXhb2ot93TNJnDte+kbtYooowYUrEQ9le5WLl9UD047gLoP0yIGpbuVPeyjzuxkX67tn3r5E+XvpY9ZIcFq1qfnz3sRKHoi2tPuS+W1L9LX1rmB+g99tXb3xVfh0yK6zNzG2tRL6kDXsqvUjRIGN1efPzcZDI8hEO4jpIXTFKW74sleH5wG5o53e8SPkjwRDGaxME+NvuhTBm1mfGVtap3wth6ZsrG2ptEuBXghsA/OI7BQVuy+iM7Pa9pRLxZtgAUETsOB5IIYUA2fOoIyVMdfbH1qbXN97VVs89WahecGztOCuQuV6PxKS3e9pv3BaOMm1M+rlIACKtj5MJGgDUlfDIghdXlI/On66tTaum/99cZPKxtPV1c3VrzUkxiKGPdLWIvQvm2TB3B+HrrKAGY4PlGcK1hWgYAKayO0rmqAmbeY2NG/GXP1Zeyn+Kusb3PDdBT4/hu8Nj4tNynRgBXhTzzZ85c7m7+B021XkoUmCAD4btUPVTQUAoFgztoNithrn2/z9Sb5bV1//wBJDYNjqgS5aL8KjygOgdfVny/qMsBhafqiyZEMkE/BpGtK9EnPlCeFd5Xuw72JHdCmp58Sf7nyinqtFd2pEjTJezbQogm/LmndoGTELSq8f2sH6WywiFBI2bmmEEWUnKi+h0iQg/LUurQ4QoEh9wu+eRjEMrrbufpKf54SyQ7Qtd0mX1oci5Z6q/2i6hh/b5V/I/IbQLQulRo50OcfOHA0kNrZvjX3EP/5tSrXYIhEMtUfCIwdSAcCqdSkydSpYWuwubqy+ab7UEPZiP0c9/38pjtRQ9nYJMa3vi2jSQ0E8f8hoWqj5kC3K6j5+SI1B7pNwczP53tdc6DbE7/8wn5s/PKG+1FDWYj8w1qoRf75hjtSQ1n4V8Hufq050O2IfxT2SdprDnQbomh+NQe6LfG/pXTpr56zMTW8afzr19LvyZoD3Xb4J1cVEPn1jXWjyvg/eu3fGrpewKkAAAAASUVORK5CYII=;" parent="1" vertex="1">
                    <mxGeometry x="610" y="210" width="316.46" height="80" as="geometry"/>
                </mxCell>
                <mxCell id="aWmyKmu1LwSrwHYh7kKq-16" value="" style="sketch=0;aspect=fixed;html=1;points=[];align=center;image;fontSize=12;image=img/lib/mscae/Docker.svg;" parent="1" vertex="1">
                    <mxGeometry x="430" y="600" width="130" height="106.6" as="geometry"/>
                </mxCell>
                <mxCell id="aWmyKmu1LwSrwHYh7kKq-21" value="" style="shape=image;verticalLabelPosition=bottom;labelBackgroundColor=default;verticalAlign=top;aspect=fixed;imageAspect=0;image=data:image/jpeg,/9j/4AAQSkZJRgABAQAAAQABAAD/2wCEAAoHCBEREREREREQEQ8REQ8REQ8SDxEPEA8RGBgZGRgUGBgcIS4lHB4rIRkYJjomKy8xNTc4GiQ7QDszPy40NTEBDAwMEA8QHhISHjQnJCQ0NDQ3PTY0MTE0NDQ0NDQ0NDQ0NDQ0NDQ0MTQ0NDQ0NDQ0NDQ0NDQxNDU0NDQ1NDQ0NP/AABEIAJ8BPgMBIgACEQEDEQH/xAAbAAACAgMBAAAAAAAAAAAAAAABAgUGAAMEB//EAEsQAAIBAwAFBwYJCQUJAAAAAAECAAMEEQUGEiExNEFRYXGRshMic4GhsRQyQlJyg5LB0RYkM0NTYoLC0gcVorPhI0VUVWOEk+Lw/8QAGgEBAAIDAQAAAAAAAAAAAAAAAAIDAQQFBv/EAC8RAQACAQIEBAQGAwEAAAAAAAABAhEDMQQSIVEFE0HwUpGhwSIyQmGB4RVx8RT/2gAMAwEAAhEDEQA/AL4I0URhAKx4ojQCIwiiMIBjQAwgwGjLFBjKYBhEEIgEQwCGA0MAMMAzMTBDmAJx6Tvkt6ZZt7Hcic7tzDs6Zr0rpVLdd/nVCPNpg7+09AlSoUq2kqpJYiipxVqjcoXnp0+vpPN28NXV155vK0utvpX95+0b5bOloxy+Zq9K/W37R952wmdTqbFa1dv1z4U/OVc5b1sWljkJcadtqAShRU1WACJTpjI3bsA8/qzJSyeoy7VRAjHeEByVHQZbozSKxSk5iOnue/uVetzzabXjEz19x29w3zDMmZlqopgjEwEwFxAYcwQBMMyYYCGLGMBgKYITBAQwQmCADEMcxDAUwQmCARGAgAjiAQIZkYCABGAmARgIGYjCZiMogYIwmCYBAwCECECGBgjBZgEMDIZmIYAxOLTN/wDB6LOACxIRAeG0ec9QwT6p3gSL1ltDVt22RkowcDpAyCO4nulWvN40rTTfE4WaMUnUrF9sxlU9F6OqX1Z9tm8khBrPnzqjHeKYPNu4+oTp01esWWztFCUw4ooq+arvwOcfJGD24MmtTdn4MwGNoVXLdOTvHsxK4zG3vCxGTTqs2PnDfv8AWDOZfl0tDTj9N5jmnvmO/vo6VObU1tSf1VieWO3XHSPfWVq0JoOnaLn9JWYDylZh5zHoHQvVJXEFGqtRFdDlWAIPSI+J14iIjEbOVMzM5kmJhjETMTLBCIMRyIICYikTYRFIgJiCMRAYCkRSI8BEDWRFIjkQGBrMBEYxTAUxDNhgIgazFjkRcQGAjgRRHEDAIRMEYCARGgAjCAwEYRVjwMhAgjAQCIwEAjQMhxCBMAgZiHEMB4EgZIBwOGeqAYcTz7Ses12zlC3wVdrDKqeeo595wSezEktGaXsaeGa5r1H52qK592ffJ8kq/Mr/ANSNS2NnWNamCbeocVkH6s/OA6Jo1uskamLgEBhsqTzMp4d06m1rssfpGI9G/wCEitK6waOrqiO1RqanJpqoUPjmOSN01tXhJtpW08dJ+k9/vhs6fFRXUreZ2+cx2+2UjqcXNrtNnYaoxp5504ZHUTkyeYgbyQAOc7hKzS1sRtlLe0r1AAAoC7Kgc28AgSbe2FxTUV6YB47Gc7J7RLa0ilYr26KrX57Tbv1dSMGGQQR0ggiZiUvTluNG1aVW2ZkV9stTLEqQuM8eIOZc6D7aI4GA6q2OjIzJzXGJRrbMzHZhEGI5EGJFIkBjEQQEIimbMRSICGCMYDAQxTHIikQNeIpE2GIYCmCEwQEMEZohgbAIRAIwgERhFEcQCI6xRGWAwEIgjCAQI2IBGEDAIwmAQgQCIZkIEDBGgAjAQOPShCUalTyS1WRCwQgHaxKlo7TFi6n4Vb0hU2jvS2Vk2ebhvl6lOvL3Rr3FSnXtxT2GKmtskM7g4O5N4HX7pOsRPplC8zHrhvW/0N+ypD/tn/pjf3/oxP0dPP0LYL78TlFjoVt4qAdXlqy+wzGpaET5tQ9H+2q/6TPLHwyjzW+KHdo/W61qVBS2WpltyFtneegheEldJ6To2yFqjb8ZVF3u/YPvO6c2hK9hUGLVaSMONPYCVB144ntElKlsjMGZFZhwJAOJCcZ2TjMxvlR6Wj7nSdcVq6mjargKGyGdAc7Kg78HnY8ZeAoAAAwAAAOgCbcRSImcsxERsQiCORARMMkIikR4CICEQERiIsBDFMcxTAWKRHMUwNZEUiOYpgIYCIxEUwFIimPEMBxCIBGEAgRhFEcCAwEcRRGgEQrAI6iARGEEYQCI0URhAOIQJgEYQCBKdpjW91dqVuigq5Q1amcZBwSF5gOk90uQkVf6u2tdi708O3FkZkYnpOOMlWYjeEbRadpadDtUfDve062eKUwmwOrdg+ybdKau21ydt0ZXPy6bbLHt5j65D32ptBBtUzcnpVGRmHZtDf3yGfR1On+vvqf0rYbvWjTPTeJlHrtMR80w+oi/JuagHQyI34RqeolP5dxWYdCoie3EgCtMf7xrjqNvW/qislt8q/un6loH+ZpLr3lHp8MLxo7QFpaHbRQHAx5So5Z+8ndN9xpm0p/HuKQ6gwdu5cmeerRss8NI1z0bKID9nJndaUWz+baJYtzPcM9THX5+yBIzWPeP7S5p95/pbdGaY+EVKmwjC3RFK1mGyGbJz6uHtktKtb6Fva7KbustOkpBFtRwAccAcAAe2WkLgADgBgSMpxn1AiKY5ikTDJDBiPITSusVC3JTJqVB8hCPNP7zcBMTMRGZTpS155axmUu0Uyi3Otly58wJTHUu03e34Tk/KG7/AG7dmymPDKvPq3a+G60x1xD0IiKZSrXWu4U+eqVV592w3eN3slg0XrBQuCFBKVD+rfAJ+ieB98nXUrbZqcRpTw9orqTH4tv3SZgMZosmqIYpEcxTAQxDHMUwFimMYDAYQiAQiA4EIgEIgOI4iLHEDXc1xTR3bJVFZyBxwBk4i6OvEr01qoGCMWwGADbiRzdk06Z5LcehqeEzn1S5JS7anjaBJ3dwtKm9RgSqKXYLgkgdEzR14lemlVAwR9rAYANuJG/B6py6f5Jc+if3TVqnyOj9Z42gTIEYQRoGm7uVpU6lRgStNS7BcFiB0Zg0beLcUkrIGCPtYDABhgkHOD1Tm1hH5nc+hf3TVqhyGh9Z42gTQmCCEQCISJghEBTTU/JXuEitPaUp2dNHalt7b7AVdlcbiSc+qTE4dK6KpXSKlYMVVtsbLFSDjHHowYHVQdWVXUea6qw3Y3EZEeBFCgADAAAA6ANwEg9a7pqaWyozK1S6oqSrFSUByw3c3AeuBNmCOYpgLMxDIXWnSZt6B2TirUyiHnX5zeoe8TEzERmU6Um9orXeULrRrEQWt6DYIyKlVTv60U+8yqW9I1HVB8ZnVATwyxxvmuSGgF2ru2H/AFUPdv8AumlNue3V6KmjXh9KeX0if5lMDUi4/a0ftP8AhD+RFx+1ofaf+mW3TukvgtBq2xtlWRQpbZztEDjgysfl63/Cr/5z/TNjytOHBv4zfTnFrRE/6aG1LuBk+Uo4APO/4SoiXN9e2II+DKMgjPlzz/wymARy1j8rjeJ8d/6pr1zjPpjfC3at6wFitCu2WO6nUPFj81j09BlqM8oH/wAeiehav6R+EUAWOaiHYfrI4N6x98srKXBcRN/wW39EmREMdohknQKYhjmKRAUxTGMUwGEYRRCIDLHEURhAcRhFEYQOPTPJbj0NTwmc+qPI6XbU8bTo0zyW49DU8JnPqlyOl21PG0Dp0/yO59E/umvVLkVH+P8AzGmzT/I7n0T+6a9UuRUf4/8AMaBMxhFjCBH6w8kufQv7pp1Q5DR+s8bTfrDyS59C/umjVDkNH6zxtA3azXL0rSq9NijrsbLDBIy6g8eoyHTTV1crTo2YU1BSpm4uXHmI5UZAzuznPMeoSS1w5DW7aXjWNqfainZ0iB51QGo55yWO72AQOH8nb1t76RqBv3QwX2MPdOc6QvdHugu2+EWrts+VAJdPXxzz4Oc43GXLMhtbqQexr5G9QrjqKsP9e+BMoQQCDkEAgjgQeBlf10vqtvbo9FzTc1VUsACSuyxxvHUJ36tVS9nbMePkkX7Pm/dIj+0PklP06eB4FkqhzTOwyrUKeaxG0oYjcSOcZnn+sdldpVtvL3K1GqVCKZVdlaTApvxjHOO6eiUvir9FfdKnrr+m0f6ZvFTgbP7p0p/zBfsf+snrClUSki1X8pVUHacDAc5O/uxOsiKYAnneut0Xutj5NJFX+JvOPvHdPRDPLNYGzd3PpmHdgSnXnFcOj4ZXOtM9oRsmNVF2r236mZu5TIeSurV5ToXKVKpK0wGG1gnZLDAJxzTWp+aHX4jPlWx2lbdfm/NFUZJetTGAMk4Bb7p5+beoBk03A6TTYDvxPUa2sFkmNq4pE/uk1D/hzDb6wWdRtla6bR3ANlM9Q2gJuTifV47X8Ptq255zH8PKJmZ6ppjQFC6Q5VUq482qowwPNnpHUZ5jd2z0qj06gw9NirDm7R1EYPrkZrhyuI4a2jv1hoEn9ULjYuCmfNqIRj95fOHs2u+QAkjoFiLu3I/aY9RBH3zEboaFprqVmO70UxDNjTW0uehIYpjmIYCmCEwQCIRAIRAcRhFEYQHEYRRGEDj0zyW49DU8JnPqlyOn21PG06NM8luPQ1PCZz6pckpdtTxtA6tPD80ufRP7pq1SP5lR+s8bTvuaIqU3pnhUR07wRIHUy6wj2r+bUou5CniVJ87HY2e8QLRGEWMIEfrCfzO59C/umrVDkND6zxtOTXO9CW3kV31K7KioN5Kggk47h65MaItTRt6VI/GSmob6XFvaTA4dcOQ1u2l41nbq/wAktvQ0/CJw648hrdtLxrO7QHJLb0NLwiBIiRetHIrn0Z94kpIrWfkVz6M+8QM1U5DbfQ/mMjP7Q+SJ6ZfA8ktVOQ230P5jI3+0LkiemXwPAtFL4q/RX3Sp67fptH+mbxU5bKXxV+ivulT13OKtgx+KKzZPR51M/dAtsUwmAwBPMNaKJW8rj5zbY7GAP4z07Mpmvdjvp3AG4jyb9XOp947pTrxmre8O1OXWxPr0U6GCddlo+rX2/JIXKKGZQRtYO7cOeam7v2tFYzM4csyPVouhwyMjDmZSp7jBSpM7BVVnY8FUFifUIZzGM56PQ9SbxqlsVckmk5QMTklcAgerOJWtfaYW7BHF6KM3WQSM9wEt+q+jGtrcK+BUdjUccdkkABfUAJR9cLwVbx9k5WmFpAjgSMlvaSPVN2MxSMvE+LWpPNy7Tbog5K6tU9u7o/ul3PUAp+/EipbNS7Mjylc8/wDs06+dj7h3zFd3I4anPq1hajEaMYplrvlitCYrQFMEJggYIwiiMIDRxEEYQHEaKIPKLkjaXaHEbQyO0QOfTPJbj0NTwmc+qXI6XbU8bTm1n0nTSi9JWD1ag2NhSGKqeJOOG7d65JaFtTStqSNuYJlh0MxLEe2BIiQWmtBNUqC5tn8ndLjO/CvjnzzHm6DJ2EQK0mnL6kNmvZPUI+XT2gG69wYRv7/vKnm0bB1Y7tuptbI694Ue2WRY0Cv6I0G/lfhV44qXHyFG9KfR1ZHMBuHXLMJrEYQIvWi3epaVadNGd28nhF4nDqT7BOvQ1NktqCOCrrSpqynipCjIM64QYDAyP1gou9pXRFLu1MhUHFjkbhO+HMCP1coPTtKCOpR1TDKeKnJ4yO13s6ta2RKSNUcVVYqoyQuywz7RLEJkAU9yrnoA9khtadEm6obKYFVG26eTgMcEFc82R7hJqDMCpW+sV3TVadaxrPUUBSyBgHxuzuUjPYZP6Lu6lamHqUmoMWYCmxJbZHBuA4ztgMDJzX9olam1Nx5rrjrB5iOsHfOiAmGYmYnMPJ9I2L29RqbjzhvDczLzMJJ6raXp2lSo1Xb2XULtKu1skHOSOOOyXTS+iqd0my4ww+JUGNpD1dI6p5/pfQle2JLLtU+aqgJTHX831zW8uaXzGzocTx8X4O/xRHzehU9OWNQfp6J6nIU9zQnTFjSGfL0F6kZST6lnk8Mt53mP8hf4Y+q66b1yUqadrtZIwa7DZCj90HfnrPtlJxDJHRehq1yRsrsJz1XBC46vnHsmMzLVvfU17d3Po6xe4qLTp8TvZsbkTnYz0i1tkpIlNBhEAA6T1nrPGadGaNp2ybFMbzvdz8Zz0n8J1Sda4dbheG8qMzvINEMdohkm0BmtjNhmtoAMEJimAYRAIRAYRxNYjiA4Mi9I6v0Lioajl1dgoJVhg4GBuIPNJQRhAjNH6AtqDB1VnccGqHa2T0gAAZ65LrFEIgbIRFEaAwMYRIwgPCIgjQNgMyIDHBgZmHMEyA0zMXMzMBoIMzIBzBMMGYGExTCTFJgZmAwTIEXdaAtKhJaioY/KTNM/4cTi/JOz6KvZ5Q/hJ+LMYhVOhpTOZrCMttA2lM5WipYcGfNQj7WZIGExTMp1pWvSsYAmKTC0QwkwmI0aKYCmIYximADFmQGB/9k=;" parent="1" vertex="1">
                    <mxGeometry x="639.23" y="421" width="258" height="129" as="geometry"/>
                </mxCell>
                <mxCell id="aWmyKmu1LwSrwHYh7kKq-24" value="" style="sketch=0;aspect=fixed;html=1;points=[];align=center;image;fontSize=12;image=img/lib/mscae/Kubernetes.svg;" parent="1" vertex="1">
                    <mxGeometry x="100" y="587.06" width="138" height="132.48" as="geometry"/>
                </mxCell>
                <mxCell id="aWmyKmu1LwSrwHYh7kKq-26" value="1" style="text;strokeColor=none;fillColor=none;html=1;fontSize=24;fontStyle=1;verticalAlign=middle;align=center;" parent="1" vertex="1">
                    <mxGeometry x="200" y="350" width="40" height="30" as="geometry"/>
                </mxCell>
                <mxCell id="aWmyKmu1LwSrwHYh7kKq-28" value="2" style="text;strokeColor=none;fillColor=none;html=1;fontSize=24;fontStyle=1;verticalAlign=middle;align=center;" parent="1" vertex="1">
                    <mxGeometry x="130" y="150" width="40" height="30" as="geometry"/>
                </mxCell>
                <mxCell id="aWmyKmu1LwSrwHYh7kKq-29" value="3" style="text;html=1;fontSize=24;fontStyle=1;verticalAlign=middle;align=center;" parent="1" vertex="1">
                    <mxGeometry x="320" y="-120" width="40" height="30" as="geometry"/>
                </mxCell>
                <mxCell id="aWmyKmu1LwSrwHYh7kKq-30" value="4" style="text;strokeColor=none;fillColor=none;html=1;fontSize=24;fontStyle=1;verticalAlign=middle;align=center;" parent="1" vertex="1">
                    <mxGeometry x="330" y="180" width="40" height="30" as="geometry"/>
                </mxCell>
                <mxCell id="aWmyKmu1LwSrwHYh7kKq-31" value="5" style="text;strokeColor=none;fillColor=none;html=1;fontSize=24;fontStyle=1;verticalAlign=middle;align=center;" parent="1" vertex="1">
                    <mxGeometry x="550" y="20" width="40" height="30" as="geometry"/>
                </mxCell>
                <mxCell id="aWmyKmu1LwSrwHYh7kKq-32" value="6" style="text;strokeColor=none;fillColor=none;html=1;fontSize=24;fontStyle=1;verticalAlign=middle;align=center;" parent="1" vertex="1">
                    <mxGeometry x="460" y="250" width="40" height="30" as="geometry"/>
                </mxCell>
                <mxCell id="aWmyKmu1LwSrwHYh7kKq-33" value="7" style="text;strokeColor=none;fillColor=none;html=1;fontSize=24;fontStyle=1;verticalAlign=middle;align=center;" parent="1" vertex="1">
                    <mxGeometry x="475" y="350" width="40" height="30" as="geometry"/>
                </mxCell>
                <mxCell id="aWmyKmu1LwSrwHYh7kKq-34" value="8" style="text;strokeColor=none;fillColor=none;html=1;fontSize=24;fontStyle=1;verticalAlign=middle;align=center;" parent="1" vertex="1">
                    <mxGeometry x="415" y="520" width="40" height="30" as="geometry"/>
                </mxCell>
                <mxCell id="aWmyKmu1LwSrwHYh7kKq-35" value="9" style="text;strokeColor=none;fillColor=none;html=1;fontSize=24;fontStyle=1;verticalAlign=middle;align=center;" parent="1" vertex="1">
                    <mxGeometry x="250" y="470.5" width="40" height="30" as="geometry"/>
                </mxCell>
                <mxCell id="aWmyKmu1LwSrwHYh7kKq-36" value="Git SCM" style="text;html=1;strokeColor=none;fillColor=none;align=center;verticalAlign=middle;whiteSpace=wrap;rounded=0;" parent="1" vertex="1">
                    <mxGeometry x="158" y="310" width="92" height="30" as="geometry"/>
                </mxCell>
                <mxCell id="aWmyKmu1LwSrwHYh7kKq-37" value="Infrastructure as code" style="text;html=1;strokeColor=none;fillColor=none;align=center;verticalAlign=middle;whiteSpace=wrap;rounded=0;" parent="1" vertex="1">
                    <mxGeometry x="200" y="260" width="90" height="30" as="geometry"/>
                </mxCell>
                <mxCell id="aWmyKmu1LwSrwHYh7kKq-39" value="Configuration Management" style="text;html=1;strokeColor=none;fillColor=none;align=center;verticalAlign=middle;whiteSpace=wrap;rounded=0;" parent="1" vertex="1">
                    <mxGeometry x="370" y="100" width="60" height="30" as="geometry"/>
                </mxCell>
                <mxCell id="aWmyKmu1LwSrwHYh7kKq-40" value="Clean &amp;amp; Compile" style="text;html=1;strokeColor=none;fillColor=none;align=center;verticalAlign=middle;whiteSpace=wrap;rounded=0;" parent="1" vertex="1">
                    <mxGeometry x="440" y="280" width="110" height="30" as="geometry"/>
                </mxCell>
                <mxCell id="aWmyKmu1LwSrwHYh7kKq-41" value="Unit Test" style="text;html=1;strokeColor=none;fillColor=none;align=center;verticalAlign=middle;whiteSpace=wrap;rounded=0;" parent="1" vertex="1">
                    <mxGeometry x="450" y="390" width="70" height="30" as="geometry"/>
                </mxCell>
                <mxCell id="aWmyKmu1LwSrwHYh7kKq-42" value="Build Image" style="text;html=1;strokeColor=none;fillColor=none;align=center;verticalAlign=middle;whiteSpace=wrap;rounded=0;" parent="1" vertex="1">
                    <mxGeometry x="400" y="470" width="60" height="30" as="geometry"/>
                </mxCell>
                <mxCell id="aWmyKmu1LwSrwHYh7kKq-43" value="Deploy" style="text;html=1;strokeColor=none;fillColor=none;align=center;verticalAlign=middle;whiteSpace=wrap;rounded=0;" parent="1" vertex="1">
                    <mxGeometry x="230" y="510" width="60" height="30" as="geometry"/>
                </mxCell>
            </root>
        </mxGraphModel>
    </diagram>
</mxfile>